<mxfile host="app.diagrams.net" modified="2024-05-11T22:14:33.926Z" agent="Mozilla/5.0 (Windows NT 10.0; Win64; x64) AppleWebKit/537.36 (KHTML, like Gecko) Chrome/123.0.0.0 Safari/537.36 OPR/109.0.0.0" etag="mGf62t0nI2QBNyIdOlSl" version="24.4.0" type="github">
  <diagram name="Página-1" id="ZgXGWhJ-TtPJYYjJbS_2">
    <mxGraphModel dx="1057" dy="1773" grid="1" gridSize="10" guides="1" tooltips="1" connect="1" arrows="1" fold="1" page="1" pageScale="1" pageWidth="827" pageHeight="1169" math="0" shadow="0">
      <root>
        <mxCell id="0" />
        <mxCell id="1" parent="0" />
        <mxCell id="zoO6AxWlEWRDvx0QU-os-5" value="Arquitectura N Capas Servicios de streaming Jhon_Rosario" style="swimlane;childLayout=stackLayout;resizeParent=1;resizeParentMax=0;horizontal=0;startSize=20;horizontalStack=0;html=1;" vertex="1" parent="1">
          <mxGeometry x="140" y="-390" width="480" height="580" as="geometry" />
        </mxCell>
        <mxCell id="zoO6AxWlEWRDvx0QU-os-6" value="Capa Cliente" style="swimlane;startSize=48;horizontal=0;html=1;" vertex="1" parent="zoO6AxWlEWRDvx0QU-os-5">
          <mxGeometry x="20" width="460" height="100" as="geometry" />
        </mxCell>
        <mxCell id="zoO6AxWlEWRDvx0QU-os-11" value="Cliente" style="shape=actor;whiteSpace=wrap;html=1;" vertex="1" parent="zoO6AxWlEWRDvx0QU-os-6">
          <mxGeometry x="190" y="10" width="100" height="80" as="geometry" />
        </mxCell>
        <mxCell id="zoO6AxWlEWRDvx0QU-os-7" value="Capa Web Servicios" style="swimlane;startSize=48;horizontal=0;html=1;" vertex="1" parent="zoO6AxWlEWRDvx0QU-os-5">
          <mxGeometry x="20" y="100" width="460" height="140" as="geometry" />
        </mxCell>
        <mxCell id="zoO6AxWlEWRDvx0QU-os-14" value="Servidor Web" style="rounded=1;whiteSpace=wrap;html=1;" vertex="1" parent="zoO6AxWlEWRDvx0QU-os-7">
          <mxGeometry x="80" y="40" width="120" height="60" as="geometry" />
        </mxCell>
        <mxCell id="zoO6AxWlEWRDvx0QU-os-15" value="Aplicación móvil" style="rounded=1;whiteSpace=wrap;html=1;" vertex="1" parent="zoO6AxWlEWRDvx0QU-os-7">
          <mxGeometry x="280" y="40" width="120" height="60" as="geometry" />
        </mxCell>
        <mxCell id="zoO6AxWlEWRDvx0QU-os-8" value="Capa de Lógica de Negocio" style="swimlane;startSize=48;horizontal=0;html=1;" vertex="1" parent="zoO6AxWlEWRDvx0QU-os-5">
          <mxGeometry x="20" y="240" width="460" height="180" as="geometry" />
        </mxCell>
        <mxCell id="zoO6AxWlEWRDvx0QU-os-13" value="Servidor de aplicac&lt;span style=&quot;background-color: initial;&quot;&gt;ión de streaming&lt;/span&gt;" style="rounded=1;whiteSpace=wrap;html=1;" vertex="1" parent="zoO6AxWlEWRDvx0QU-os-8">
          <mxGeometry x="180" y="60" width="120" height="60" as="geometry" />
        </mxCell>
        <mxCell id="zoO6AxWlEWRDvx0QU-os-10" value="&lt;p style=&quot;line-height: 140%;&quot;&gt;Capa de Base de Datos&lt;/p&gt;" style="swimlane;startSize=48;horizontal=0;html=1;" vertex="1" parent="zoO6AxWlEWRDvx0QU-os-5">
          <mxGeometry x="20" y="420" width="460" height="160" as="geometry" />
        </mxCell>
        <mxCell id="zoO6AxWlEWRDvx0QU-os-12" value="Base de datos" style="shape=datastore;whiteSpace=wrap;html=1;" vertex="1" parent="zoO6AxWlEWRDvx0QU-os-10">
          <mxGeometry x="210" y="60" width="60" height="60" as="geometry" />
        </mxCell>
        <mxCell id="zoO6AxWlEWRDvx0QU-os-16" value="" style="endArrow=classic;html=1;rounded=0;" edge="1" parent="zoO6AxWlEWRDvx0QU-os-5" source="zoO6AxWlEWRDvx0QU-os-11" target="zoO6AxWlEWRDvx0QU-os-14">
          <mxGeometry width="50" height="50" relative="1" as="geometry">
            <mxPoint x="220" y="220" as="sourcePoint" />
            <mxPoint x="270" y="170" as="targetPoint" />
          </mxGeometry>
        </mxCell>
        <mxCell id="zoO6AxWlEWRDvx0QU-os-17" value="" style="endArrow=classic;html=1;rounded=0;" edge="1" parent="zoO6AxWlEWRDvx0QU-os-5" source="zoO6AxWlEWRDvx0QU-os-11" target="zoO6AxWlEWRDvx0QU-os-15">
          <mxGeometry width="50" height="50" relative="1" as="geometry">
            <mxPoint x="220" y="220" as="sourcePoint" />
            <mxPoint x="270" y="170" as="targetPoint" />
          </mxGeometry>
        </mxCell>
        <mxCell id="zoO6AxWlEWRDvx0QU-os-18" value="" style="endArrow=classic;html=1;rounded=0;" edge="1" parent="zoO6AxWlEWRDvx0QU-os-5" source="zoO6AxWlEWRDvx0QU-os-14" target="zoO6AxWlEWRDvx0QU-os-13">
          <mxGeometry width="50" height="50" relative="1" as="geometry">
            <mxPoint x="220" y="320" as="sourcePoint" />
            <mxPoint x="270" y="270" as="targetPoint" />
          </mxGeometry>
        </mxCell>
        <mxCell id="zoO6AxWlEWRDvx0QU-os-20" value="" style="endArrow=classic;html=1;rounded=0;" edge="1" parent="zoO6AxWlEWRDvx0QU-os-5" source="zoO6AxWlEWRDvx0QU-os-15" target="zoO6AxWlEWRDvx0QU-os-13">
          <mxGeometry width="50" height="50" relative="1" as="geometry">
            <mxPoint x="220" y="320" as="sourcePoint" />
            <mxPoint x="270" y="270" as="targetPoint" />
          </mxGeometry>
        </mxCell>
        <mxCell id="zoO6AxWlEWRDvx0QU-os-21" value="" style="endArrow=classic;html=1;rounded=0;entryX=0.5;entryY=0;entryDx=0;entryDy=0;" edge="1" parent="zoO6AxWlEWRDvx0QU-os-5" source="zoO6AxWlEWRDvx0QU-os-13" target="zoO6AxWlEWRDvx0QU-os-12">
          <mxGeometry width="50" height="50" relative="1" as="geometry">
            <mxPoint x="220" y="420" as="sourcePoint" />
            <mxPoint x="270" y="370" as="targetPoint" />
          </mxGeometry>
        </mxCell>
        <mxCell id="zoO6AxWlEWRDvx0QU-os-23" value="" style="endArrow=classic;html=1;rounded=0;entryX=0;entryY=0.75;entryDx=0;entryDy=0;" edge="1" parent="zoO6AxWlEWRDvx0QU-os-5" source="zoO6AxWlEWRDvx0QU-os-12" target="zoO6AxWlEWRDvx0QU-os-13">
          <mxGeometry width="50" height="50" relative="1" as="geometry">
            <mxPoint x="220" y="420" as="sourcePoint" />
            <mxPoint x="270" y="370" as="targetPoint" />
            <Array as="points">
              <mxPoint x="110" y="510" />
              <mxPoint x="110" y="345" />
            </Array>
          </mxGeometry>
        </mxCell>
        <mxCell id="zoO6AxWlEWRDvx0QU-os-24" value="" style="endArrow=classic;html=1;rounded=0;entryX=0.75;entryY=1;entryDx=0;entryDy=0;" edge="1" parent="zoO6AxWlEWRDvx0QU-os-5" source="zoO6AxWlEWRDvx0QU-os-13" target="zoO6AxWlEWRDvx0QU-os-15">
          <mxGeometry width="50" height="50" relative="1" as="geometry">
            <mxPoint x="220" y="320" as="sourcePoint" />
            <mxPoint x="270" y="270" as="targetPoint" />
            <Array as="points">
              <mxPoint x="390" y="330" />
            </Array>
          </mxGeometry>
        </mxCell>
        <mxCell id="zoO6AxWlEWRDvx0QU-os-25" value="" style="endArrow=classic;html=1;rounded=0;entryX=0.175;entryY=1.011;entryDx=0;entryDy=0;entryPerimeter=0;" edge="1" parent="zoO6AxWlEWRDvx0QU-os-5" source="zoO6AxWlEWRDvx0QU-os-13" target="zoO6AxWlEWRDvx0QU-os-14">
          <mxGeometry width="50" height="50" relative="1" as="geometry">
            <mxPoint x="220" y="320" as="sourcePoint" />
            <mxPoint x="270" y="270" as="targetPoint" />
            <Array as="points">
              <mxPoint x="120" y="330" />
            </Array>
          </mxGeometry>
        </mxCell>
        <mxCell id="zoO6AxWlEWRDvx0QU-os-26" value="Usuario" style="shape=umlActor;verticalLabelPosition=bottom;verticalAlign=top;html=1;outlineConnect=0;" vertex="1" parent="1">
          <mxGeometry x="60" y="520" width="30" height="60" as="geometry" />
        </mxCell>
        <mxCell id="zoO6AxWlEWRDvx0QU-os-27" value="Banca Móvil" style="ellipse;whiteSpace=wrap;html=1;" vertex="1" parent="1">
          <mxGeometry x="170" y="510" width="120" height="80" as="geometry" />
        </mxCell>
        <mxCell id="zoO6AxWlEWRDvx0QU-os-28" value="Servicio de registro y autenticación" style="ellipse;whiteSpace=wrap;html=1;" vertex="1" parent="1">
          <mxGeometry x="340" y="390" width="120" height="80" as="geometry" />
        </mxCell>
        <mxCell id="zoO6AxWlEWRDvx0QU-os-29" value="Registro civil" style="shape=dataStorage;whiteSpace=wrap;html=1;fixedSize=1;" vertex="1" parent="1">
          <mxGeometry x="570" y="390" width="120" height="80" as="geometry" />
        </mxCell>
        <mxCell id="zoO6AxWlEWRDvx0QU-os-30" value="BD usuarios" style="shape=datastore;whiteSpace=wrap;html=1;" vertex="1" parent="1">
          <mxGeometry x="610" y="510" width="60" height="60" as="geometry" />
        </mxCell>
        <mxCell id="zoO6AxWlEWRDvx0QU-os-31" value="Estado de cuenta" style="ellipse;whiteSpace=wrap;html=1;" vertex="1" parent="1">
          <mxGeometry x="340" y="510" width="120" height="80" as="geometry" />
        </mxCell>
        <mxCell id="zoO6AxWlEWRDvx0QU-os-32" value="Gestión de transacciones" style="ellipse;whiteSpace=wrap;html=1;" vertex="1" parent="1">
          <mxGeometry x="340" y="620" width="120" height="80" as="geometry" />
        </mxCell>
        <mxCell id="zoO6AxWlEWRDvx0QU-os-33" value="" style="endArrow=none;html=1;rounded=0;" edge="1" parent="1" source="zoO6AxWlEWRDvx0QU-os-26" target="zoO6AxWlEWRDvx0QU-os-27">
          <mxGeometry width="50" height="50" relative="1" as="geometry">
            <mxPoint x="370" y="620" as="sourcePoint" />
            <mxPoint x="420" y="570" as="targetPoint" />
          </mxGeometry>
        </mxCell>
        <mxCell id="zoO6AxWlEWRDvx0QU-os-34" value="" style="endArrow=none;html=1;rounded=0;exitX=1;exitY=0.5;exitDx=0;exitDy=0;" edge="1" parent="1" source="zoO6AxWlEWRDvx0QU-os-27" target="zoO6AxWlEWRDvx0QU-os-31">
          <mxGeometry width="50" height="50" relative="1" as="geometry">
            <mxPoint x="370" y="620" as="sourcePoint" />
            <mxPoint x="420" y="570" as="targetPoint" />
          </mxGeometry>
        </mxCell>
        <mxCell id="zoO6AxWlEWRDvx0QU-os-35" value="" style="endArrow=none;html=1;rounded=0;" edge="1" parent="1" source="zoO6AxWlEWRDvx0QU-os-27" target="zoO6AxWlEWRDvx0QU-os-28">
          <mxGeometry width="50" height="50" relative="1" as="geometry">
            <mxPoint x="370" y="620" as="sourcePoint" />
            <mxPoint x="420" y="570" as="targetPoint" />
          </mxGeometry>
        </mxCell>
        <mxCell id="zoO6AxWlEWRDvx0QU-os-36" value="" style="endArrow=none;html=1;rounded=0;" edge="1" parent="1" source="zoO6AxWlEWRDvx0QU-os-32" target="zoO6AxWlEWRDvx0QU-os-27">
          <mxGeometry width="50" height="50" relative="1" as="geometry">
            <mxPoint x="370" y="620" as="sourcePoint" />
            <mxPoint x="420" y="570" as="targetPoint" />
          </mxGeometry>
        </mxCell>
        <mxCell id="zoO6AxWlEWRDvx0QU-os-37" value="" style="endArrow=none;html=1;rounded=0;" edge="1" parent="1" source="zoO6AxWlEWRDvx0QU-os-31" target="zoO6AxWlEWRDvx0QU-os-28">
          <mxGeometry width="50" height="50" relative="1" as="geometry">
            <mxPoint x="370" y="620" as="sourcePoint" />
            <mxPoint x="420" y="570" as="targetPoint" />
          </mxGeometry>
        </mxCell>
        <mxCell id="zoO6AxWlEWRDvx0QU-os-38" value="" style="endArrow=none;html=1;rounded=0;" edge="1" parent="1" source="zoO6AxWlEWRDvx0QU-os-32" target="zoO6AxWlEWRDvx0QU-os-31">
          <mxGeometry width="50" height="50" relative="1" as="geometry">
            <mxPoint x="370" y="620" as="sourcePoint" />
            <mxPoint x="420" y="570" as="targetPoint" />
          </mxGeometry>
        </mxCell>
        <mxCell id="zoO6AxWlEWRDvx0QU-os-39" value="" style="endArrow=none;html=1;rounded=0;" edge="1" parent="1" source="zoO6AxWlEWRDvx0QU-os-28" target="zoO6AxWlEWRDvx0QU-os-29">
          <mxGeometry width="50" height="50" relative="1" as="geometry">
            <mxPoint x="370" y="620" as="sourcePoint" />
            <mxPoint x="420" y="570" as="targetPoint" />
          </mxGeometry>
        </mxCell>
        <mxCell id="zoO6AxWlEWRDvx0QU-os-40" value="" style="endArrow=none;html=1;rounded=0;entryX=0;entryY=0.5;entryDx=0;entryDy=0;" edge="1" parent="1" source="zoO6AxWlEWRDvx0QU-os-28" target="zoO6AxWlEWRDvx0QU-os-30">
          <mxGeometry width="50" height="50" relative="1" as="geometry">
            <mxPoint x="370" y="620" as="sourcePoint" />
            <mxPoint x="420" y="570" as="targetPoint" />
          </mxGeometry>
        </mxCell>
        <mxCell id="zoO6AxWlEWRDvx0QU-os-41" value="" style="endArrow=none;html=1;rounded=0;entryX=0;entryY=0.7;entryDx=0;entryDy=0;" edge="1" parent="1" source="zoO6AxWlEWRDvx0QU-os-31" target="zoO6AxWlEWRDvx0QU-os-30">
          <mxGeometry width="50" height="50" relative="1" as="geometry">
            <mxPoint x="370" y="620" as="sourcePoint" />
            <mxPoint x="420" y="570" as="targetPoint" />
          </mxGeometry>
        </mxCell>
        <mxCell id="zoO6AxWlEWRDvx0QU-os-42" value="" style="endArrow=none;html=1;rounded=0;" edge="1" parent="1" source="zoO6AxWlEWRDvx0QU-os-32" target="zoO6AxWlEWRDvx0QU-os-30">
          <mxGeometry width="50" height="50" relative="1" as="geometry">
            <mxPoint x="370" y="620" as="sourcePoint" />
            <mxPoint x="420" y="570" as="targetPoint" />
          </mxGeometry>
        </mxCell>
      </root>
    </mxGraphModel>
  </diagram>
</mxfile>
